<?xml version="1.0" encoding="iso-8859-1"?>
<!-- Uploaded to: SVG Repo, www.svgrepo.com, Generator: SVG Repo Mixer Tools -->
<svg version="1.1" id="Layer_1" xmlns="http://www.w3.org/2000/svg" xmlns:xlink="http://www.w3.org/1999/xlink" 
	 viewBox="0 0 512 512" xml:space="preserve">
<rect x="93.154" y="158.223" style="fill:#B8C5CC;" width="347.975" height="304.384"/>
<rect x="95.505" y="65.07" style="fill:#CFDCE5;" width="320.985" height="103.86"/>
<rect x="95.505" y="65.07" style="fill:#B8C5CC;" width="320.985" height="62.102"/>
<g>
	<rect x="8.202" y="398.062" style="fill:#CFDCE5;" width="131.277" height="64.545"/>
	<rect x="39.311" y="112.839" style="fill:#CFDCE5;" width="69.061" height="225.928"/>
</g>
<rect x="39.311" y="112.839" style="fill:#B8C5CC;" width="19.582" height="225.928"/>
<g>
	<polygon style="fill:#CFDCE5;" points="17.761,368.414 28.856,338.766 118.823,338.766 129.916,368.414 118.823,398.06 
		28.856,398.06 	"/>
	<polygon style="fill:#CFDCE5;" points="17.761,83.19 129.916,83.19 118.823,112.836 28.856,112.836 	"/>
	<rect x="372.527" y="398.062" style="fill:#CFDCE5;" width="131.277" height="64.545"/>
	<rect x="403.629" y="112.839" style="fill:#CFDCE5;" width="69.061" height="225.928"/>
</g>
<g>
	<rect x="39.311" y="112.839" style="fill:#B8C5CC;" width="69.061" height="28.253"/>
	<rect x="403.629" y="112.839" style="fill:#B8C5CC;" width="19.582" height="225.928"/>
	<rect x="403.629" y="112.839" style="fill:#B8C5CC;" width="69.061" height="28.253"/>
</g>
<g>
	<polygon style="fill:#CFDCE5;" points="494.244,368.413 483.141,398.06 393.179,398.06 382.087,368.413 393.179,338.765 
		483.141,338.765 	"/>
	<polygon style="fill:#CFDCE5;" points="382.084,83.19 494.239,83.19 483.145,112.836 393.177,112.836 	"/>
	<rect x="8.202" y="49.398" style="fill:#CFDCE5;" width="495.601" height="33.791"/>
</g>
<g>
	<polygon style="fill:#B8C5CC;" points="129.918,368.413 118.815,398.06 28.855,398.06 17.761,368.413 	"/>
	<polygon style="fill:#B8C5CC;" points="494.244,368.413 483.141,398.06 393.179,398.06 382.087,368.413 	"/>
	<path style="fill:#B8C5CC;" d="M403.632,168.929H108.368c18.59,0,33.661,15.071,33.661,33.661h227.943
		C369.972,184,385.042,168.929,403.632,168.929z"/>
</g>
<rect x="166.064" y="239.599" style="fill:#7190A5;" width="179.877" height="223.009"/>
<path style="fill:#FCD577;" d="M246.476,265.049c0,60.505-42.818,50.266-41.887,91.222c0.413,18.173,12.523,30.24,28.292,35.823
	c4.499,1.593,8.589-3.225,6.376-7.453c-6.499-12.414-10.802-32.603,14.666-49.779c1.15,23.291,20.479,26.995,20.479,43.75
	c0,2.115-0.133,4.022-0.367,5.739c-0.561,4.131,3.73,7.231,7.496,5.443c13.255-6.292,23.462-17.69,25.452-34.454
	C313.497,300.421,246.476,265.049,246.476,265.049z"/>
<polygon style="fill:#BA6B24;" points="307.576,445.204 286.505,415.512 256.001,437.162 225.495,415.512 204.424,445.204 
	224.543,459.486 228.944,462.603 291.858,462.603 287.457,459.486 "/>
<path d="M472.689,138.585c4.53,0,8.202-3.672,8.202-8.202v-9.344h2.254c3.421,0,6.483-2.124,7.681-5.328l9.1-24.32h3.871
	c4.53,0,8.202-3.672,8.202-8.202V49.398c0-4.53-3.672-8.202-8.202-8.202H82.448c-4.53,0-8.202,3.672-8.202,8.202
	s3.672,8.202,8.202,8.202h413.148v17.387H16.404V57.6h39.277c4.53,0,8.202-3.672,8.202-8.202s-3.672-8.202-8.202-8.202H8.202
	C3.672,41.196,0,44.869,0,49.398V83.19c0,4.53,3.672,8.202,8.202,8.202h3.871l9.1,24.32c1.199,3.204,4.261,5.328,7.682,5.328h2.253
	v209.524h-2.253c-3.421,0-6.483,2.124-7.682,5.328L10.08,365.539c-0.693,1.854-0.693,3.895,0,5.749l6.949,18.571H8.202
	c-4.53,0-8.202,3.672-8.202,8.202v64.541c0,4.53,3.672,8.202,8.202,8.202h495.596c4.53,0,8.202-3.672,8.202-8.202V398.06
	c0-4.53-3.672-8.202-8.202-8.202h-8.827l6.949-18.571c0.693-1.854,0.693-3.895,0-5.749l-11.094-29.648
	c-1.199-3.204-4.261-5.328-7.681-5.328h-2.254V157.152c0-4.53-3.672-8.202-8.202-8.202s-8.202,3.672-8.202,8.202v173.412h-52.653
	V121.039h52.653v9.344C464.487,134.913,468.159,138.585,472.689,138.585z M118.09,91.392l-4.955,13.244H34.544l-4.955-13.244H118.09
	z M34.544,346.968h4.766h69.057h4.766l4.955,13.244H29.589L34.544,346.968z M47.513,121.039h52.653v209.524H47.513V121.039z
	 M29.589,376.616h88.501l-4.955,13.244H34.544L29.589,376.616z M16.404,406.263h12.452h89.968h12.452v48.137H16.404V406.263z
	 M215.859,443.262l11.578-16.314l38.689,27.452h-34.569L215.859,443.262z M287.46,449.425l-17.286-12.265l14.388-10.211
	l11.578,16.314L287.46,449.425z M495.596,454.4H380.727v-48.137h12.452h89.968h12.451V454.4H495.596z M398.866,389.859
	l-4.955-13.244h88.502l-4.955,13.244H398.866z M472.689,346.968h4.767l4.955,13.244h-88.502l4.955-13.244h4.767H472.689z
	 M393.177,330.564c-3.421,0-6.483,2.124-7.681,5.328l-11.095,29.648c-0.693,1.854-0.693,3.895,0,5.749l6.949,18.571h-8.827
	c-4.53,0-8.202,3.672-8.202,8.202v56.339h-10.18V239.595c0-4.53-3.672-8.202-8.202-8.202H166.061c-4.53,0-8.202,3.672-8.202,8.202
	v97.435c0,4.53,3.672,8.202,8.202,8.202s8.202-3.672,8.202-8.202v-89.233h163.475V454.4H308.79l3.535-2.509
	c3.693-2.621,4.561-7.742,1.94-11.435l-21.072-29.69c-1.259-1.774-3.17-2.976-5.316-3.34c-2.142-0.363-4.346,0.139-6.12,1.398
	l-25.756,18.279l-25.76-18.279c-1.774-1.26-3.977-1.762-6.12-1.398c-2.145,0.364-4.056,1.565-5.316,3.339l-21.072,29.69
	c-2.621,3.694-1.753,8.813,1.94,11.435l3.536,2.509h-28.949v-90.602c0-4.53-3.672-8.202-8.202-8.202s-8.202,3.672-8.202,8.202
	v90.602h-10.18v-56.339c0-4.53-3.672-8.202-8.202-8.202h-8.827l6.949-18.571c0.693-1.854,0.693-3.895,0-5.749l-11.094-29.648
	c-1.199-3.204-4.261-5.328-7.682-5.328h-2.253V178.494c10.024,3.422,17.256,12.926,17.256,24.095c0,4.53,3.672,8.202,8.202,8.202
	H369.97c4.53,0,8.202-3.672,8.202-8.202c0-11.169,7.232-20.674,17.257-24.095v152.069L393.177,330.564L393.177,330.564z
	 M141.579,177.131H370.42c-3.833,4.989-6.569,10.863-7.844,17.257H149.424C148.149,187.993,145.412,182.12,141.579,177.131z
	 M395.43,160.727H116.57v-39.688h2.253c3.421,0,6.483-2.124,7.682-5.328l9.1-24.32h240.791l9.101,24.32
	c1.2,3.204,4.261,5.328,7.681,5.328h2.253L395.43,160.727L395.43,160.727z M398.866,104.635l-4.955-13.244h88.501l-4.955,13.244
	H398.866z"/>
<path d="M359.324,132.889H208.792c-4.53,0-8.202,3.672-8.202,8.202s3.672,8.202,8.202,8.202h150.532c4.53,0,8.202-3.672,8.202-8.202
	S363.853,132.889,359.324,132.889z"/>
<path d="M182.025,132.889h-29.347c-4.53,0-8.202,3.672-8.202,8.202s3.672,8.202,8.202,8.202h29.347c4.53,0,8.202-3.672,8.202-8.202
	S186.554,132.889,182.025,132.889z"/>
<path d="M359.324,101.928h-37.036c-4.53,0-8.202,3.672-8.202,8.202s3.672,8.202,8.202,8.202h37.036c4.53,0,8.202-3.672,8.202-8.202
	S363.853,101.928,359.324,101.928z"/>
<path d="M152.676,118.332h142.843c4.53,0,8.202-3.672,8.202-8.202s-3.672-8.202-8.202-8.202H152.676
	c-4.53,0-8.202,3.672-8.202,8.202S148.147,118.332,152.676,118.332z"/>
<path d="M230.143,399.825c1.481,0.524,3.001,0.779,4.503,0.779c3.806,0,7.494-1.633,10.107-4.646
	c3.669-4.231,4.364-10.167,1.769-15.121c-6.133-11.717-5.369-21.913,2.394-30.906c2.772,6.696,6.861,11.535,10.412,15.737
	c4.514,5.343,6.871,8.345,6.871,12.944c0,1.649-0.098,3.209-0.293,4.636c-0.664,4.886,1.402,9.734,5.394,12.653
	c4.006,2.929,9.273,3.428,13.747,1.305c17.237-8.182,27.92-22.707,30.079-40.897c2.974-25.064-7.468-50.152-30.197-72.549
	c-16.61-16.367-33.896-25.578-34.625-25.962c-2.542-1.342-5.601-1.255-8.063,0.23c-2.462,1.484-3.967,4.149-3.967,7.024
	c0,29.478-10.495,39.3-21.606,49.697c-9.743,9.116-20.784,19.45-20.279,41.711C196.84,376.291,209.459,392.503,230.143,399.825z
	 M227.876,326.724c10.246-9.588,22.642-21.189,25.955-47.406c17.571,12.184,49.235,39.399,45.005,75.055
	c-1.554,13.094-8.954,20.911-16.246,25.502c0.009-0.419,0.014-0.84,0.014-1.264c0-10.816-5.709-17.572-10.746-23.532
	c-4.972-5.884-9.266-10.965-9.743-20.622c-0.145-2.957-1.873-5.605-4.521-6.93c-2.647-1.325-5.804-1.12-8.257,0.535
	c-20.599,13.892-27.82,33.001-20.495,53.27c-7.574-4.187-15.748-11.809-16.053-25.247
	C212.45,341.159,218.92,335.105,227.876,326.724z"/>
</svg>