<?xml version="1.0" encoding="iso-8859-1"?>
<!-- Uploaded to: SVG Repo, www.svgrepo.com, Generator: SVG Repo Mixer Tools -->
<svg version="1.1" id="Layer_1" xmlns="http://www.w3.org/2000/svg" xmlns:xlink="http://www.w3.org/1999/xlink" 
	 viewBox="0 0 512 512" xml:space="preserve">
<polygon style="fill:#F39624;" points="512,0 256,0 235.085,256 256,512 512,512 "/>
<polygon style="fill:#0079CE;" points="463.493,48.508 256,48.508 235.085,256 256,463.492 463.493,463.492 "/>
<rect style="fill:#F7C02D;" width="256" height="512"/>
<rect x="48.504" y="48.504" style="fill:#288FD9;" width="207.496" height="414.981"/>
<path style="fill:#F7C02D;" d="M273.092,110.477H256l-20.915,24.316L256,158.984h17.092c20.506,0,37.19,16.683,37.19,37.189
	s-16.684,37.19-37.19,37.19H256l-20.915,22.638L256,281.872h17.092c47.254,0,85.697-38.444,85.697-85.697
	C358.791,148.921,320.347,110.477,273.092,110.477z"/>
<polygon style="fill:#FBE27B;" points="201.718,233.364 201.718,158.984 256,158.984 256,110.477 153.209,110.477 153.209,401.523 
	201.975,401.523 201.975,281.872 256,281.872 256,233.364 "/>
</svg>